PathFileType	4	(X/Y/Z)	./resultDataOpenSim/trcMotMarkerGrf/sub06/qtm-05-05.trc
DataRate	CameraRate	NumFrames	NumMarkers	Units	OrigDataRate	OrigDataStartFrame	OrigNumFrames
250.000000	250.000000	12	24	m	250.000000	1	505
Frame#	Time	L.Toe.Tip			R.Toe.Tip			L.Ankle.Lat			R.Ankle.Lat			L.Ankle.Med			R.Ankle.Med			L.Heel			R.Heel			L.Knee.Lat			R.Knee.Lat			L.Knee.Med			R.Knee.Med			L.Thigh.Upper			R.Thigh.Upper			L.ASIS			R.ASIS			V.Sacral			L.Acromium			R.Acromium			C7			L.Elbow			R.Elbow			L.Wrist.Lat			R.Wrist.Lat
		X1	Y1	Z1	X2	Y2	Z2	X3	Y3	Z3	X4	Y4	Z4	X5	Y5	Z5	X6	Y6	Z6	X7	Y7	Z7	X8	Y8	Z8	X9	Y9	Z9	X10	Y10	Z10	X11	Y11	Z11	X12	Y12	Z12	X13	Y13	Z13	X14	Y14	Z14	X15	Y15	Z15	X16	Y16	Z16	X17	Y17	Z17	X18	Y18	Z18	X19	Y19	Z19	X20	Y20	Z20	X21	Y21	Z21	X22	Y22	Z22	X23	Y23	Z23	X24	Y24	Z24

1	0	-1.5894081	0.032661295	-0.062659367	-1.0971745	0.070784775	0.13555867	-1.7063629	0.080204946	-0.071995078	-1.2278902	0.076296572	0.13076858	-1.6958541	0.092242534	0.011929118	-1.1999138	0.10467942	0.050458267	NaN	NaN	NaN	-1.2645525	0.047334692	0.053118029	-1.5477213	0.41730065	-0.091394371	-1.2522119	0.46631562	0.1582409	-1.5583672	0.42051768	0.028030431	-1.2594853	0.45149656	0.032830115	-1.4546025	0.79566443	-0.15975588	-1.4390825	0.79291332	0.19002917	-1.3716196	0.83263636	-0.11836512	-1.3519657	0.83964536	0.12668035	-1.539497	0.92194	0.025431305	-1.3700889	1.3229645	-0.17220564	-1.3876773	1.3051479	0.19008093	-1.4533096	1.3576296	0.0071864165	-1.3888463	1.0020357	-0.24886668	NaN	NaN	NaN	-1.1889185	0.85537133	-0.211669	-1.4216433	0.79910438	0.27953931
2	0.004	-1.5889459	0.032816927	-0.063305466	-1.0787806	0.073296388	0.13423069	-1.7060415	0.080869457	-0.072391176	-1.2096736	0.075886856	0.1309737	-1.6953059	0.092992125	0.011373696	-1.1838558	0.10512125	0.050718856	NaN	NaN	NaN	-1.2465291	0.04563232	0.054048156	-1.5451631	0.41688955	-0.091698915	-1.245457	0.46485533	0.15735173	-1.5557902	0.42005538	0.027818898	-1.2532855	0.44969376	0.032074415	-1.4491406	0.7937875	-0.15969705	-1.4305615	0.79154925	0.1909038	-1.3658209	0.83135255	-0.11860028	-1.3454177	0.83819545	0.12668805	-1.5334113	0.92066833	0.025880202	-1.363962	1.3215218	-0.17204624	-1.3820871	1.3035094	0.19034163	-1.4473947	1.3562592	0.0072539701	-1.3810001	1.0003779	-0.24879348	NaN	NaN	NaN	-1.1801403	0.85545912	-0.21059073	-1.4174574	0.79729881	0.27972058
3	0.008	-1.5887592	0.032892155	-0.063642134	-1.0607056	0.075945202	0.13290854	-1.7056788	0.081552324	-0.072831193	-1.191635	0.075633753	0.13123119	-1.6947094	0.093750799	0.010794141	-1.1678237	0.10562944	0.050883165	NaN	NaN	NaN	-1.2287762	0.044222301	0.054835701	-1.5424546	0.41644884	-0.092036063	-1.2387972	0.46333005	0.15641593	-1.55319	0.41959163	0.027598869	-1.247049	0.44784214	0.031220733	-1.4437514	0.79198448	-0.15944286	-1.4229708	0.79004628	0.19143222	-1.3599952	0.83005442	-0.11888444	-1.3388335	0.83674449	0.12668551	-1.5273193	0.91938879	0.026325593	-1.3578349	1.3200481	-0.17186367	-1.3764387	1.3018413	0.19060209	-1.4414595	1.3548757	0.0073595399	-1.373164	0.99870376	-0.24874271	NaN	NaN	NaN	-1.1713818	0.85549456	-0.20951941	-1.4132571	0.79548335	0.27991993
4	0.012	-1.5888089	0.032884299	-0.063700867	-1.0431381	0.078815298	0.13157875	-1.7052665	0.082269862	-0.073332408	-1.1738676	0.075658083	0.13156874	-1.694057	0.094543412	0.010203697	-1.1519946	0.10624667	0.050929986	NaN	NaN	NaN	-1.2114725	0.043188123	0.055482512	-1.5395253	0.41596387	-0.09240952	-1.2322336	0.46172693	0.15542267	-1.5505486	0.41908521	0.02737403	-1.2407418	0.44592303	0.03023698	-1.4385048	0.79040105	-0.15887251	-1.4164105	0.78838513	0.1915394	-1.354127	0.82874878	-0.1192458	-1.3321881	0.83529279	0.12667372	-1.5212409	0.91804511	0.02671593	-1.3516914	1.3185231	-0.17165099	-1.3707171	1.3001458	0.19086829	-1.4354808	1.353465	0.0075309608	-1.3653351	0.9970165	-0.24872083	NaN	NaN	NaN	-1.1626564	0.85545152	-0.20846186	-1.4090053	0.79365142	0.28014635
5	0.016	-1.5889061	0.032841219	-0.063681769	-1.026159	0.081925742	0.13017531	-1.7048491	0.08301435	-0.073872973	-1.1564936	0.075990843	0.13195764	-1.6933577	0.095375447	0.0096300453	-1.136622	0.1069784	0.050884696	NaN	NaN	NaN	-1.1947372	0.042441543	0.056064726	-1.5363887	0.41543376	-0.092795526	-1.2256834	0.46008919	0.15440696	-1.5477635	0.41849281	0.027134936	-1.2343554	0.44395703	0.029151462	-1.4333554	0.78905685	-0.15810503	-1.4103978	0.78666023	0.19133254	-1.3482361	0.82743415	-0.11965152	-1.3254764	0.83384719	0.12666013	-1.5152103	0.91660664	0.02702465	-1.3455146	1.3169493	-0.17141849	-1.3649628	1.2984598	0.19114961	-1.4294651	1.3520163	0.0077565176	-1.3575189	0.99533295	-0.24870694	NaN	NaN	NaN	-1.1539836	0.85533572	-0.20742268	-1.4046799	0.79180926	0.28039705
6	0.02	-1.5889549	0.032801722	-0.063693965	-1.0097816	0.085282375	0.128587	-1.7044947	0.083763221	-0.074414641	-1.139731	0.076543232	0.13230102	-1.6928237	0.096173141	0.0091335498	-1.121848	0.10780814	0.05075584	NaN	NaN	NaN	-1.1786268	0.041862472	0.056611616	-1.5330763	0.41485263	-0.093165096	-1.2190041	0.45848493	0.15342295	-1.5447517	0.41781096	0.026867447	-1.2278882	0.44198231	0.028000639	-1.4281399	0.7877856	-0.15743624	-1.4044979	0.78496798	0.19093003	-1.3423426	0.82607525	-0.12001751	-1.3186987	0.83241483	0.12664963	-1.5092025	0.91514157	0.027327736	-1.3392906	1.3153458	-0.17117706	-1.3592096	1.2968087	0.19145358	-1.4234392	1.3505247	0.0079835253	-1.3497194	0.99365859	-0.24865573	NaN	NaN	NaN	-1.145372	0.85516832	-0.20640345	-1.4002777	0.78996945	0.2806712
7	0.024	-1.5889546	0.032777293	-0.063745348	-0.99402022	0.088905967	0.12674354	-1.7042048	0.08451613	-0.074945569	-1.123829	0.077170826	0.13247692	-1.6930618	0.096791405	0.0088720677	-1.1077271	0.10869817	0.050521716	NaN	NaN	NaN	-1.1631465	0.041366798	0.057097205	-1.5296023	0.41421233	-0.093506439	-1.2120034	0.45699603	0.15252468	-1.5415081	0.41706423	0.026574913	-1.2213373	0.44004061	0.026809797	-1.4227517	0.78643854	-0.15701997	-1.3984912	0.78332167	0.19047402	-1.3364287	0.82465078	-0.12027807	-1.3118535	0.83100137	0.1266446	-1.5030724	0.9137296	0.027698064	-1.3330224	1.3137358	-0.17092629	-1.3534506	1.2951782	0.19178107	-1.4174223	1.3489969	0.0081701928	-1.3419381	0.9919853	-0.2485204	NaN	NaN	NaN	-1.1368392	0.85496576	-0.20540756	-1.3957962	0.78814239	0.28097314
8	0.028	-1.5889279	0.03276187	-0.063813772	-0.97893113	0.092776353	0.12468111	-1.7038566	0.085299582	-0.075491582	-1.1089154	0.077780094	0.13241157	-1.6945205	0.097170766	0.0089711109	-1.0943014	0.10958464	0.050155049	NaN	NaN	NaN	-1.1482853	0.040906598	0.057482007	-1.5259716	0.41351941	-0.093825637	-1.2045321	0.45569609	0.15173763	-1.538011	0.41627324	0.02626439	-1.2146989	0.43817311	0.025602935	-1.4172093	0.78499083	-0.15678353	-1.3921394	0.78169341	0.19016483	-1.3304548	0.82319181	-0.12042696	-1.3049235	0.8296138	0.12664885	-1.4965453	0.91231384	0.028038397	-1.3267258	1.3121378	-0.17065638	-1.3476625	1.2935372	0.19213	-1.4114066	1.3474511	0.0083297431	-1.3341776	0.99030621	-0.2482854	NaN	NaN	NaN	-1.1284114	0.85473119	-0.20443482	-1.3912399	0.78633003	0.28130175
9	0.032	-1.588892	0.032747373	-0.063882992	-0.96465971	0.096720186	0.12254428	-1.703291	0.086136823	-0.076077752	-1.0949614	0.078344145	0.13210241	-1.6965381	0.097518134	0.0092193049	-1.0815756	0.11040204	0.049641556	NaN	NaN	NaN	-1.1340819	0.04045228	0.057714116	-1.5221889	0.41278978	-0.094136116	-1.1966818	0.45459631	0.15100828	-1.5342479	0.41544742	0.02593457	-1.2079683	0.43641713	0.024408577	-1.4115754	0.78348218	-0.15662471	-1.3849866	0.78013653	0.19019722	-1.3244115	0.82174501	-0.12050169	-1.2979016	0.82825781	0.12666538	-1.4893913	0.91074044	0.028149164	-1.3204068	1.3105609	-0.1703523	-1.3418428	1.2918757	0.19250253	-1.4053651	1.3459106	0.0085142322	-1.3264442	0.98862426	-0.24797276	NaN	NaN	NaN	-1.1200835	0.85445846	-0.20346821	-1.3866378	0.78452615	0.28165341
10	0.036	-1.5888527	0.032732251	-0.063949143	-0.95141038	0.10041738	0.12052193	-1.7024856	0.087029442	-0.076688764	-1.0818805	0.078846087	0.1315784	-1.6976949	0.098179388	0.0091491935	-1.0695046	0.11110137	0.048972238	NaN	NaN	NaN	-1.1206331	0.039985103	0.057717696	-1.5182611	0.41203498	-0.09445373	-1.1887561	0.45364271	0.15023127	-1.5302476	0.41459583	0.02558366	-1.2011345	0.43480645	0.023252289	-1.4058866	0.78195025	-0.15650526	-1.3766297	0.77876546	0.19064863	-1.3183181	0.82032272	-0.12053861	-1.2908246	0.82693302	0.12669041	-1.4817801	0.90897053	0.02799874	-1.3140552	1.3090041	-0.17000004	-1.3360131	1.2902146	0.19290203	-1.3992741	1.3443898	0.0087579307	-1.3187426	0.98694833	-0.24760866	NaN	NaN	NaN	-1.1118097	0.85413839	-0.20248049	-1.3820258	0.78272461	0.28203119
11	0.04	-1.5888068	0.032720021	-0.064012195	-0.9392788	0.10358142	0.11871676	-1.7015726	0.087968019	-0.077282826	-1.0696064	0.079252191	0.13085972	-1.6973333	0.099278957	0.0085473446	-1.0580547	0.11164098	0.048131744	NaN	NaN	NaN	-1.1080136	0.039494718	0.057425244	-1.5142018	0.41126531	-0.094779167	-1.1809559	0.45278536	0.14935802	-1.5260496	0.41372844	0.025216676	-1.1941803	0.43336862	0.022144215	-1.400143	0.78041415	-0.15640363	-1.3673813	0.77755828	0.19137409	-1.312171	0.81890421	-0.120535	-1.2837431	0.82563485	0.12671678	-1.4742921	0.90715196	0.027802283	-1.307659	1.3074593	-0.16959715	-1.3301939	1.2885832	0.1933276	-1.3931308	1.3428862	0.009042992	-1.3110714	0.9852862	-0.24719865	NaN	NaN	NaN	-1.1035524	0.85376437	-0.20146274	-1.3774107	0.78092697	0.28244313
12	0.044	-1.5887484	0.032714866	-0.064070667	-0.92817059	0.10608572	0.11709048	-1.7006601	0.088955194	-0.077844109	-1.0581048	0.07952272	0.12994677	-1.6959812	0.10064377	0.0076167538	-1.0472347	0.11198899	0.047103996	NaN	NaN	NaN	-1.0962284	0.038970982	0.056810649	-1.510024	0.41049354	-0.095095815	-1.1732313	0.45200959	0.14843492	-1.5216774	0.412852	0.024839685	-1.1870903	0.43211785	0.021076926	-1.3943276	0.77888432	-0.15629384	-1.3582667	0.77631434	0.19207023	-1.3059429	0.81746923	-0.1204661	-1.2766708	0.82436074	0.12674235	-1.46737	0.90544382	0.027784196	-1.301213	1.3059185	-0.16915512	-1.3243862	1.2869923	0.19377656	-1.3869453	1.3413911	0.009328431	-1.3034306	0.98364079	-0.24673406	NaN	NaN	NaN	-1.0953176	0.85334157	-0.20043145	-1.3727648	0.77914274	0.28289946
